<svg height="512" viewBox="0 0 448 512" width="448" xmlns="http://www.w3.org/2000/svg"><path d="m48 32c-26.5 0-48 21.5-48 48v352c0 26.5 21.5 48 48 48h352c26.5 0 48-21.5 48-48v-352c0-26.5-21.5-48-48-48zm130.50781 64c8.12582 1.525769 28.12596 13.4878 35.7461 18.26562 10.47115 6.56518 24.50841 16.5923 33.05273 25.36329 11.79637 12.11026 20.6992 26.78345 28.19727 41.81445 5.67588 11.37789 12.71115 30.00014 12.85937 42.7207.02615 2.47612.67121 8.8147-2.79883 9.20703-3.11257.35747-10.54921-8.60389-12.89453-10.94921-10.81989-10.81989-22.64268-20.77731-34.875-29.9668l-27.64648-20.68164c-9.29413-9.81724-14.66589-21.56074-19.60938-33.92383-4.525-11.31686-10.34854-29.90501-12.03125-41.84961zm-135.140622 36.61914 40.107421 5.73633c46.043391 8.30019 91.501601 24.71771 130.779301 50.35937 17.25427 11.27326 34.17679 24.30776 48.58007 39.08594l13.32227 13.7832c1.94427 1.89195 5.04895 4.98839 7.84766 5.36329 3.49619.45338 6.05036-2.90447 7.93359-5.34571l14.56055-20.92383c12.9298-15.99007 32.51976-26.78517 53.35742-27.02929h12.20703c7.15804.00871 17.38486 1.57063 24.41211 3.18359 2.30174.53184 7.35059 1.32399 8.07422 3.95703.80213 2.92948-4.37709 5.93755-6.33008 7.51563-6.79186 5.4579-10.44585 10.66462-14.14258 18.47656-11.58713 24.46464-10.67111 57.79602-24.49023 88.05859-22.74704 49.80986-63.13245 84.19515-116.56055 96.88086-15.31002 3.63568-30.55021 4.43895-46.20898 4.25586-11.91844-.1395-29.53766-3.43664-40.97657-6.95898-4.30703-1.31654-11.15248-2.4573-13.95117-6.11914 28.71935-1.31653 61.68607-19.65249 81.95703-39.26953 4.9958-4.83888 14.30638-15.97252 18.38672-21.76172 1.52578-2.17096 4.64648-6.73032 3.80078-9.49414-1.24678-4.09778-7.50554-3.61889-10.85351-3.58399l-21.79688 1.74414c-33.01766.38362-54.22227-13.89865-75.34765-38.36328-4.73425-5.48405-12.76288-13.505-15.32618-20.05273l27.02735-4.98633 15.69336-1.98828c-21.0905-4.25472-52.68713-19.94771-68.005862-34.88281-5.954863-5.80666-12.667977-12.13709-15.693359-20.04493 9.88699-2.85973 19.398121-3.60162 29.642581-3.48828 6.33848.0785 9.23476 1.83964 15.69531 0-6.20771-2.29301-20.9698-11.95243-27.0293-15.98047-15.048451-10.01776-28.029309-18.13493-40.97656-31.09961-7.576539-7.58527-14.692668-15.89358-15.695312-27.02734zm311.427732 78.79883c-.33666.00638-.68355.02567-1.04101.06055-11.10761 4.40294-4.77027 16.94159 3.48632 14.91015 8.44623-2.06934 7.99112-15.16863-2.44531-14.9707z"/></svg>